<svg width="14" height="20" viewBox="0 0 14 20" fill="none" xmlns="http://www.w3.org/2000/svg">
<path d="M10.7502 19V12.6471M10.7502 19L12.9168 16.2773M10.7502 19L8.5835 16.2773" stroke="#3F7AC6" stroke-linecap="round" stroke-linejoin="round"/>
<path d="M8.58333 9.47059C9.73261 9.47059 10.8348 9.02437 11.6475 8.2301C12.4601 7.43583 12.9167 6.35856 12.9167 5.23529C12.9167 4.11202 12.4601 3.03476 11.6475 2.24049C10.8348 1.44622 9.73261 1 8.58333 1C7.43406 1 6.33186 1.44622 5.5192 2.24049C4.70655 3.03476 4.25 4.11202 4.25 5.23529C4.25 6.35856 4.70655 7.43583 5.5192 8.2301C6.33186 9.02437 7.43406 9.47059 8.58333 9.47059Z" stroke="#3F7AC6" stroke-width="1.5" stroke-linecap="round" stroke-linejoin="round"/>
<path d="M1 17.9411V16.8823C0.999736 15.6318 1.32319 14.4016 1.94026 13.3061C2.55733 12.2107 3.44795 11.2856 4.52921 10.6171C5.61047 9.94856 6.84721 9.55828 8.12431 9.48259C9.40141 9.40689 10.6773 9.64824 11.8333 10.1842" stroke="#3F7AC6" stroke-width="1.5" stroke-linecap="round" stroke-linejoin="round"/>
</svg>
