<svg width="19" height="20" viewBox="0 0 19 20" fill="none" xmlns="http://www.w3.org/2000/svg">
<path d="M8 9C9.06087 9 10.0783 8.57857 10.8284 7.82843C11.5786 7.07828 12 6.06087 12 5C12 3.93913 11.5786 2.92172 10.8284 2.17157C10.0783 1.42143 9.06087 1 8 1C6.93913 1 5.92172 1.42143 5.17157 2.17157C4.42143 2.92172 4 3.93913 4 5C4 6.06087 4.42143 7.07828 5.17157 7.82843C5.92172 8.57857 6.93913 9 8 9Z" stroke="#62C656" stroke-width="1.5" stroke-linecap="round" stroke-linejoin="round"/>
<path d="M1 17V16C0.999756 14.819 1.29833 13.6571 1.86794 12.6225C2.43754 11.5879 3.25965 10.7142 4.25773 10.0828C5.25582 9.45145 6.39743 9.08286 7.57629 9.01137C8.75515 8.93988 9.93293 9.16783 11 9.67398M17 19L18 13L14.5 14.8L13 13L11.5 14.8L8 13L9 19H17Z" stroke="#62C656" stroke-width="1.5" stroke-linecap="round" stroke-linejoin="round"/>
</svg>
